<svg width="222" height="165" viewBox="0 0 222 165" fill="none" xmlns="http://www.w3.org/2000/svg">
<g clip-path="url(#clip0)">
<path d="M206.748 67.7942H0V165H206.748V67.7942Z" fill="#31BF3F"/>
<path d="M172.568 107.172H34.1801V165H172.568V107.172Z" fill="#F0F0F0"/>
<path d="M172.568 110.701H34.1801V111.252H172.568V110.701Z" fill="#3F3D56"/>
<path d="M36.6746 110.08C37.2243 110.08 37.6699 109.638 37.6699 109.093C37.6699 108.549 37.2243 108.107 36.6746 108.107C36.125 108.107 35.6794 108.549 35.6794 109.093C35.6794 109.638 36.125 110.08 36.6746 110.08Z" fill="#3F3D56"/>
<path d="M40.0868 110.08C40.6365 110.08 41.0821 109.638 41.0821 109.093C41.0821 108.549 40.6365 108.107 40.0868 108.107C39.5372 108.107 39.0916 108.549 39.0916 109.093C39.0916 109.638 39.5372 110.08 40.0868 110.08Z" fill="#3F3D56"/>
<path d="M43.499 110.08C44.0487 110.08 44.4943 109.638 44.4943 109.093C44.4943 108.549 44.0487 108.107 43.499 108.107C42.9494 108.107 42.5038 108.549 42.5038 109.093C42.5038 109.638 42.9494 110.08 43.499 110.08Z" fill="#3F3D56"/>
<path d="M110.61 136.687L112.084 139.645L115.378 140.12L112.994 142.422L113.557 145.674L110.61 144.139L107.664 145.674L108.226 142.422L105.843 140.12L109.137 139.645L110.61 136.687Z" fill="#31BF3F"/>
<path d="M123.866 136.687L125.339 139.645L128.634 140.12L126.25 142.422L126.812 145.674L123.866 144.139L120.919 145.674L121.482 142.422L119.098 140.12L122.393 139.645L123.866 136.687Z" fill="#31BF3F"/>
<path d="M137.121 136.687L138.594 139.645L141.889 140.12L139.505 142.422L140.068 145.674L137.121 144.139L134.175 145.674L134.737 142.422L132.354 140.12L135.648 139.645L137.121 136.687Z" fill="#31BF3F"/>
<path d="M150.377 136.687L151.85 139.645L155.144 140.12L152.76 142.422L153.323 145.674L150.377 144.139L147.43 145.674L147.993 142.422L145.609 140.12L148.903 139.645L150.377 136.687Z" fill="#31BF3F"/>
<path d="M163.632 136.687L165.105 139.645L168.4 140.12L166.016 142.422L166.579 145.674L163.632 144.139L160.685 145.674L161.248 142.422L158.864 140.12L162.159 139.645L163.632 136.687Z" fill="#31BF3F"/>
<path d="M97.5385 124.245H43.6283V158.116H97.5385V124.245Z" fill="#3F3D56"/>
<path opacity="0.1" d="M54.6215 67.7941L0 104.953V85.9164L26.6383 67.7941H54.6215Z" fill="black"/>
<path opacity="0.1" d="M116.743 67.7941L0 147.214V128.175L88.76 67.7941H116.743Z" fill="black"/>
<path d="M31.5802 95.5079L27.8384 91.5326L31.85 87.8247L35.5918 91.8L31.5802 95.5079ZM28.4348 91.5531L31.6009 94.9169L34.9954 91.7794L31.8293 88.4157L28.4348 91.5531Z" fill="#F0F0F0"/>
<path d="M155.061 93.0075H149.575V87.5714H155.061V93.0075ZM149.997 92.5893H154.639V87.9895H149.997V92.5893Z" fill="#3F3D56"/>
<path d="M189.049 139.4C190.596 139.4 191.85 138.158 191.85 136.625C191.85 135.092 190.596 133.849 189.049 133.849C187.503 133.849 186.249 135.092 186.249 136.625C186.249 138.158 187.503 139.4 189.049 139.4Z" fill="#F0F0F0"/>
<path d="M189.049 144.643C187.449 144.643 185.885 144.172 184.554 143.291C183.224 142.41 182.187 141.158 181.574 139.693C180.962 138.228 180.802 136.616 181.114 135.061C181.426 133.505 182.197 132.077 183.328 130.955C184.46 129.834 185.901 129.071 187.471 128.761C189.04 128.452 190.667 128.611 192.146 129.217C193.624 129.824 194.888 130.852 195.777 132.17C196.666 133.489 197.14 135.039 197.14 136.625C197.138 138.751 196.285 140.788 194.768 142.292C193.251 143.795 191.195 144.64 189.049 144.643ZM189.049 129.224C187.572 129.224 186.128 129.658 184.9 130.471C183.672 131.284 182.715 132.44 182.149 133.793C181.584 135.145 181.436 136.633 181.724 138.069C182.013 139.504 182.724 140.823 183.768 141.858C184.813 142.893 186.144 143.598 187.592 143.884C189.041 144.169 190.543 144.023 191.908 143.462C193.272 142.902 194.439 141.954 195.259 140.737C196.08 139.52 196.518 138.089 196.518 136.625C196.516 134.663 195.728 132.781 194.328 131.394C192.928 130.007 191.03 129.226 189.049 129.224Z" fill="#2F2E41"/>
<path d="M63.6362 150.691C64.9227 155.403 69.3292 158.322 69.3292 158.322C69.3292 158.322 71.6499 153.6 70.3634 148.887C69.0769 144.175 64.6704 141.256 64.6704 141.256C64.6704 141.256 62.3497 145.978 63.6362 150.691Z" fill="white"/>
<path d="M65.5266 149.678C69.0567 153.083 69.4879 158.318 69.4879 158.318C69.4879 158.318 64.1956 158.032 60.6654 154.626C57.1353 151.221 56.7041 145.986 56.7041 145.986C56.7041 145.986 61.9964 146.273 65.5266 149.678Z" fill="#31BF3F"/>
<path d="M75.3397 150.691C74.0532 155.403 69.6467 158.322 69.6467 158.322C69.6467 158.322 67.3259 153.6 68.6124 148.887C69.8989 144.175 74.3055 141.256 74.3055 141.256C74.3055 141.256 76.6262 145.978 75.3397 150.691Z" fill="white"/>
<path d="M73.4492 149.678C69.9191 153.083 69.4879 158.318 69.4879 158.318C69.4879 158.318 74.7802 158.032 78.3104 154.626C81.8405 151.221 82.2717 145.986 82.2717 145.986C82.2717 145.986 76.9794 146.273 73.4492 149.678Z" fill="#31BF3F"/>
<path d="M179.422 5.24783H157.603V30.4375H179.422V5.24783Z" fill="#F2F2F2"/>
<path d="M172.004 68.0851L171.7 67.7919C173.095 66.2252 174.152 64.393 174.806 62.4074C175.837 59.3336 176.341 54.4792 172.886 48.8085C169.35 43.0066 169.191 38.2941 169.68 35.3625C170.212 32.1725 171.57 30.3845 171.628 30.31L171.964 30.5649C171.951 30.5824 170.605 32.3609 170.094 35.4557C169.623 38.3129 169.787 42.9112 173.248 48.5914C176.792 54.4071 176.267 59.3963 175.202 62.5577C174.049 65.9829 172.087 68.0009 172.004 68.0851Z" fill="#3F3D56"/>
<path d="M187.895 30.6474H157.391V0.41983H187.895V30.6474ZM157.815 30.2276H187.471V0.839658H157.815V30.2276Z" fill="#3F3D56"/>
<path d="M182.387 9.23621H163.746V9.65603H182.387V9.23621Z" fill="#3F3D56"/>
<path d="M182.387 13.8543H163.746V14.2741H182.387V13.8543Z" fill="#3F3D56"/>
<path d="M182.387 18.4724H163.746V18.8922H182.387V18.4724Z" fill="#3F3D56"/>
<path d="M213.527 23.5103H191.708V48.6999H213.527V23.5103Z" fill="#F2F2F2"/>
<path d="M206.109 86.3476L205.805 86.0543C207.2 84.4877 208.257 82.6554 208.911 80.6699C209.942 77.5961 210.446 72.7416 206.99 67.071C203.455 61.269 203.296 56.5565 203.785 53.6249C204.317 50.435 205.675 48.647 205.732 48.5724L206.069 48.8274C206.056 48.8449 204.71 50.6234 204.199 53.7182C203.728 56.5754 203.892 61.1737 207.353 66.8539C210.896 72.6696 210.372 77.6588 209.307 80.8201C208.154 84.2454 206.192 86.2633 206.109 86.3476Z" fill="#3F3D56"/>
<path d="M222 48.9099H191.496V18.6823H222V48.9099ZM191.92 48.49H221.576V19.1021H191.92V48.49Z" fill="#3F3D56"/>
<path d="M216.492 27.4987H197.851V27.9185H216.492V27.4987Z" fill="#3F3D56"/>
<path d="M216.492 32.1168H197.851V32.5366H216.492V32.1168Z" fill="#3F3D56"/>
<path d="M216.492 36.7349H197.851V37.1547H216.492V36.7349Z" fill="#3F3D56"/>
<path d="M51.2634 4.828H29.4447V30.0176H51.2634V4.828Z" fill="#F2F2F2"/>
<path d="M43.8452 67.6653L43.542 67.372C44.9364 65.8054 45.9932 63.9732 46.6479 61.9876C47.6787 58.9138 48.1822 54.0593 44.7271 48.3887C41.192 42.5867 41.0329 37.8742 41.5219 34.9426C42.054 31.7527 43.4116 29.9647 43.4691 29.8901L43.8058 30.145C43.7922 30.1626 42.4465 31.9411 41.9358 35.0359C41.4644 37.8931 41.6288 42.4914 45.0897 48.1716C48.6331 53.9873 48.1082 58.9765 47.044 62.1378C45.8908 65.5631 43.9282 67.581 43.8452 67.6653Z" fill="#3F3D56"/>
<path d="M59.7366 30.2276H29.2328V0H59.7366V30.2276ZM29.6565 29.8077H59.313V0.419827H29.6565V29.8077Z" fill="#3F3D56"/>
<path d="M54.229 8.81638H35.5878V9.2362H54.229V8.81638Z" fill="#3F3D56"/>
<path d="M54.229 13.4345H35.5878V13.8543H54.229V13.4345Z" fill="#3F3D56"/>
<path d="M54.229 18.0526H35.5878V18.4724H54.229V18.0526Z" fill="#3F3D56"/>
<path d="M99.4469 76.8618L100.92 79.8201L104.215 80.2943L101.831 82.597L102.393 85.8484L99.4469 84.3133L96.5001 85.8484L97.0629 82.597L94.6792 80.2943L97.9736 79.8201L99.4469 76.8618Z" fill="#F0F0F0"/>
<path d="M104.773 10.1621H104.773C109.863 10.1621 113.99 14.7005 113.99 20.299V27.4119H111.783L110.505 24.7765L110.824 27.4119H96.6347L95.4728 25.0161L95.7633 27.4119H94.1657V21.827C94.1657 15.3847 98.9146 10.1621 104.773 10.1621Z" fill="#2F2E41"/>
<path d="M115.334 56.6339L120.994 59.0174L140.661 74.8608C141.384 75.7414 141.827 76.8149 141.934 77.9453C142.076 79.768 148.018 89.3021 145.896 90.564C143.774 91.8258 136.133 95.6114 135.709 93.0877C135.284 90.564 133.021 79.768 133.021 79.768L114.061 62.9432L115.334 56.6339Z" fill="#2F2E41"/>
<path d="M137.548 90.9847L139.953 97.995C139.953 97.995 137.407 100.659 138.68 102.902V110.614H140.661L141.227 106.548C141.227 106.548 143.483 110.562 144.623 110.614C147.011 110.721 151.742 111.563 151.884 110.301C152.025 109.04 148.301 107.809 148.301 107.809L144.34 97.0135L142.642 90.4238L137.548 90.9847Z" fill="#2F2E41"/>
<path d="M100.62 54.8112C100.62 54.8112 99.3463 67.1494 103.025 69.3927C106.704 71.636 122.975 78.7866 122.975 78.7866C122.975 78.7866 116.042 85.2361 117.457 86.7784C118.872 88.3207 125.239 92.5269 126.088 91.6856C126.937 90.8444 136.416 80.7495 135.284 77.5247C134.152 74.3 118.447 63.7844 118.447 63.7844L116.608 57.1947L116.042 51.8668L110.099 48.0813L100.62 54.8112Z" fill="#2F2E41"/>
<path d="M107.102 26.0847C110.36 26.0847 113 23.4678 113 20.2397C113 17.0116 110.36 14.3947 107.102 14.3947C103.844 14.3947 101.204 17.0116 101.204 20.2397C101.204 23.4678 103.844 26.0847 107.102 26.0847Z" fill="#FFB9B9"/>
<path d="M102.53 22.6337C102.53 22.6337 102.813 27.9616 98.4266 29.644C94.0405 31.3265 109.321 42.2627 109.321 42.2627V30.0647C109.321 30.0647 107.34 27.9616 109.321 24.7368L102.53 22.6337Z" fill="#FFB9B9"/>
<path d="M93.1208 47.6606L94.2527 53.1287L97.6484 71.9165C97.6484 71.9165 94.8187 79.9083 98.6389 79.768C102.459 79.6278 100.62 71.0752 100.62 71.0752L98.6389 55.5122V49.4833L93.1208 47.6606Z" fill="#FFB9B9"/>
<path d="M117.457 44.9967L118.73 49.9039L124.531 63.7844C124.531 63.7844 128.493 70.3742 125.239 70.2339C121.984 70.0937 121.984 63.7844 121.984 63.7844L115.335 52.5679V46.2586L117.457 44.9967Z" fill="#FFB9B9"/>
<path d="M118.447 85.9371L113.778 90.2836C113.778 90.2836 110.524 89.5825 109.25 93.3681C107.977 97.1537 107.128 99.5372 107.128 99.5372L108.826 100.519L110.948 97.5743C110.948 97.5743 112.222 102.902 113.495 103.323C114.769 103.743 121.136 106.548 120.57 103.323L117.457 98.8362C117.457 98.8362 117.032 93.7887 118.306 93.3681C119.579 92.9475 122.975 88.7413 122.975 88.7413L118.447 85.9371Z" fill="#2F2E41"/>
<path d="M100.395 59.1576C100.395 59.1576 113.695 54.3906 114.544 54.8112C115.176 55.0878 115.849 55.2609 116.537 55.3238L116.525 53.4091C116.525 53.4091 112.139 51.8668 109.734 52.8483C107.328 53.8297 99.9709 58.1762 99.9709 58.1762L100.395 59.1576Z" fill="#3F3D56"/>
<path d="M108.472 39.4585C108.472 39.4585 104.652 35.1121 103.52 32.4482C102.804 30.8332 101.49 29.5524 99.848 28.87C99.848 28.87 91.3522 30.7657 91.4937 34.1307C91.6352 37.4957 96.8703 42.6833 96.8703 42.6833C96.8703 42.6833 96.1628 61.3308 99.983 61.0504C100.807 60.076 101.389 58.9234 101.681 57.6855C102.105 55.7226 115.264 53.6195 115.264 53.6195C115.264 53.6195 116.396 55.5824 116.537 54.7411C116.679 53.8999 115.405 33.2894 115.405 33.2894L108.658 28.87L108.472 39.4585Z" fill="#D0CDE1"/>
<path d="M92.5836 32.7762L92.4888 32.8289C92.1865 32.9971 91.9347 33.242 91.7596 33.5385C91.5844 33.835 91.4921 34.1724 91.4921 34.516L91.4936 44.9212C91.4925 45.204 91.4294 45.4833 91.3085 45.7395C91.1877 45.9957 91.012 46.2228 90.7937 46.405C90.2487 46.8644 89.7433 47.5264 90.7863 47.8709C92.4841 48.4318 99.1341 51.2359 99.2756 50.2545C99.4171 49.273 99.7 48.1514 99.2756 48.1514C98.9433 48.1514 96.9634 38.0974 95.3725 33.7987C95.2753 33.5355 95.1216 33.2964 94.922 33.0979C94.7224 32.8994 94.4816 32.7462 94.2164 32.6489C93.9512 32.5517 93.6678 32.5127 93.3859 32.5347C93.104 32.5567 92.8302 32.6391 92.5836 32.7762Z" fill="#D0CDE1"/>
<path d="M113.495 32.7987L115.476 33.3595L117.74 43.0338C117.74 43.0338 120.428 43.5947 119.579 44.5761C118.73 45.5576 115.193 48.0813 115.193 48.0813L113.495 32.7987Z" fill="#D0CDE1"/>
<path d="M102.152 12.9545C102.596 12.3642 103.171 11.8832 103.832 11.5487C104.494 11.2142 105.224 11.0352 105.967 11.0256H106.148C109.637 11.0256 112.465 14.1544 112.465 18.0139V18.0139H111.296L111.107 16.5897L110.831 18.0139H103.896L103.316 16.809L103.461 18.0139H102.097C101.46 21.1465 102.375 24.2792 104.841 27.4119H102.517L101.355 25.0021L101.645 27.4119H97.2156L96.3442 21.8694C96.3442 17.7187 98.778 14.1989 102.152 12.9545Z" fill="#2F2E41"/>
</g>
<defs>
<clipPath id="clip0">
<rect width="222" height="165" fill="white"/>
</clipPath>
</defs>
</svg>
