<svg width="153" height="140" viewBox="0 0 153 140" fill="none" xmlns="http://www.w3.org/2000/svg">
<path d="M19.3887 34.9688L23.6953 16.4062H29.4609L22.0781 42H16.6992L9.36914 16.4062H15.0996L19.3887 34.9688ZM38.5312 42.3516C35.9766 42.3516 33.9844 41.5898 32.5547 40.0664C31.125 38.543 30.4102 36.3633 30.4102 33.5273V32.0156C30.4102 29.0156 31.0664 26.7012 32.3789 25.0723C33.6914 23.4434 35.5723 22.6289 38.0215 22.6289C40.4121 22.6289 42.2109 23.3965 43.418 24.9316C44.625 26.4551 45.2402 28.7168 45.2637 31.7168V34.1602H35.3672C35.4375 35.5664 35.748 36.5977 36.2988 37.2539C36.8496 37.8984 37.6992 38.2207 38.8477 38.2207C40.5117 38.2207 41.9004 37.6523 43.0137 36.5156L44.9648 39.5215C44.3555 40.3652 43.4707 41.0508 42.3105 41.5781C41.1504 42.0938 39.8906 42.3516 38.5312 42.3516ZM35.4023 30.6797H40.377V30.2227C40.3535 29.0859 40.166 28.2246 39.8145 27.6387C39.4629 27.0527 38.8535 26.7598 37.9863 26.7598C37.1191 26.7598 36.4863 27.0703 36.0879 27.6914C35.7012 28.3125 35.4727 29.3086 35.4023 30.6797ZM47.4785 31.9102C47.4785 28.793 48.041 26.4668 49.166 24.9316C50.291 23.3965 51.8672 22.6289 53.8945 22.6289C55.6172 22.6289 56.9473 23.3086 57.8848 24.668L58.0781 22.9805H62.5605V42C62.5605 44.4258 61.8809 46.2773 60.5215 47.5547C59.1621 48.8438 57.2109 49.4883 54.668 49.4883C53.625 49.4883 52.5293 49.2773 51.3809 48.8555C50.2324 48.4453 49.377 47.918 48.8145 47.2734L50.4844 43.8281C50.9531 44.3203 51.5625 44.7188 52.3125 45.0234C53.0625 45.3398 53.7715 45.498 54.4395 45.498C55.5527 45.498 56.3496 45.2285 56.8301 44.6895C57.3223 44.1621 57.5742 43.3066 57.5859 42.123V40.4883C56.6367 41.7305 55.4004 42.3516 53.877 42.3516C51.8496 42.3516 50.2793 41.5664 49.166 39.9961C48.0645 38.4141 47.502 36.1875 47.4785 33.3164V31.9102ZM52.4531 33.1582C52.4531 34.916 52.6816 36.1992 53.1387 37.0078C53.5957 37.8047 54.3223 38.2031 55.3184 38.2031C56.3379 38.2031 57.0938 37.834 57.5859 37.0957V28.0078C57.0703 27.1992 56.3262 26.7949 55.3535 26.7949C54.3691 26.7949 53.6367 27.1992 53.1562 28.0078C52.6875 28.8164 52.4531 30.1172 52.4531 31.9102V33.1582ZM65.584 31.9102C65.584 28.793 66.1465 26.4668 67.2715 24.9316C68.3965 23.3965 69.9727 22.6289 72 22.6289C73.7227 22.6289 75.0527 23.3086 75.9902 24.668L76.1836 22.9805H80.666V42C80.666 44.4258 79.9863 46.2773 78.627 47.5547C77.2676 48.8438 75.3164 49.4883 72.7734 49.4883C71.7305 49.4883 70.6348 49.2773 69.4863 48.8555C68.3379 48.4453 67.4824 47.918 66.9199 47.2734L68.5898 43.8281C69.0586 44.3203 69.668 44.7188 70.418 45.0234C71.168 45.3398 71.877 45.498 72.5449 45.498C73.6582 45.498 74.4551 45.2285 74.9355 44.6895C75.4277 44.1621 75.6797 43.3066 75.6914 42.123V40.4883C74.7422 41.7305 73.5059 42.3516 71.9824 42.3516C69.9551 42.3516 68.3848 41.5664 67.2715 39.9961C66.1699 38.4141 65.6074 36.1875 65.584 33.3164V31.9102ZM70.5586 33.1582C70.5586 34.916 70.7871 36.1992 71.2441 37.0078C71.7012 37.8047 72.4277 38.2031 73.4238 38.2031C74.4434 38.2031 75.1992 37.834 75.6914 37.0957V28.0078C75.1758 27.1992 74.4316 26.7949 73.459 26.7949C72.4746 26.7949 71.7422 27.1992 71.2617 28.0078C70.793 28.8164 70.5586 30.1172 70.5586 31.9102V33.1582ZM89.5078 42H84.5156V22.9805H89.5078V42ZM84.2871 18.0586C84.2871 17.2852 84.5332 16.6523 85.0254 16.1602C85.5176 15.668 86.1738 15.4219 86.9941 15.4219C87.8145 15.4219 88.4707 15.668 88.9629 16.1602C89.4551 16.6523 89.7012 17.2852 89.7012 18.0586C89.7012 18.8203 89.4551 19.4531 88.9629 19.957C88.4824 20.4609 87.8262 20.7129 86.9941 20.7129C86.1621 20.7129 85.5 20.4609 85.0078 19.957C84.5273 19.4531 84.2871 18.8203 84.2871 18.0586ZM101.039 42.3516C98.4844 42.3516 96.4922 41.5898 95.0625 40.0664C93.6328 38.543 92.918 36.3633 92.918 33.5273V32.0156C92.918 29.0156 93.5742 26.7012 94.8867 25.0723C96.1992 23.4434 98.0801 22.6289 100.529 22.6289C102.92 22.6289 104.719 23.3965 105.926 24.9316C107.133 26.4551 107.748 28.7168 107.771 31.7168V34.1602H97.875C97.9453 35.5664 98.2559 36.5977 98.8066 37.2539C99.3574 37.8984 100.207 38.2207 101.355 38.2207C103.02 38.2207 104.408 37.6523 105.521 36.5156L107.473 39.5215C106.863 40.3652 105.979 41.0508 104.818 41.5781C103.658 42.0938 102.398 42.3516 101.039 42.3516ZM97.9102 30.6797H102.885V30.2227C102.861 29.0859 102.674 28.2246 102.322 27.6387C101.971 27.0527 101.361 26.7598 100.494 26.7598C99.627 26.7598 98.9941 27.0703 98.5957 27.6914C98.209 28.3125 97.9805 29.3086 97.9102 30.6797ZM111.111 24.2637L108.826 22.875C109.658 21.2227 110.092 19.6172 110.127 18.0586V15H114.029V17.7773C114.018 18.8438 113.736 19.998 113.186 21.2402C112.646 22.4707 111.955 23.4785 111.111 24.2637ZM121.887 36.9023C121.887 36.4805 121.682 36.0938 121.271 35.7422C120.873 35.3789 119.977 34.8926 118.582 34.2832C116.531 33.4512 115.119 32.5898 114.346 31.6992C113.584 30.8086 113.203 29.7012 113.203 28.377C113.203 26.7129 113.801 25.3418 114.996 24.2637C116.203 23.1738 117.797 22.6289 119.777 22.6289C121.863 22.6289 123.533 23.168 124.787 24.2461C126.041 25.3242 126.668 26.7715 126.668 28.5879H121.693C121.693 27.041 121.049 26.2676 119.76 26.2676C119.232 26.2676 118.799 26.4316 118.459 26.7598C118.119 27.0879 117.949 27.5449 117.949 28.1309C117.949 28.5527 118.137 28.9277 118.512 29.2559C118.887 29.5723 119.771 30.0293 121.166 30.627C123.193 31.377 124.623 32.2148 125.455 33.1406C126.299 34.0547 126.721 35.2441 126.721 36.709C126.721 38.4082 126.082 39.7734 124.805 40.8047C123.527 41.8359 121.852 42.3516 119.777 42.3516C118.383 42.3516 117.152 42.082 116.086 41.543C115.02 40.9922 114.182 40.2305 113.572 39.2578C112.975 38.2852 112.676 37.2363 112.676 36.1113H117.404C117.428 36.9785 117.627 37.6289 118.002 38.0625C118.389 38.4961 119.016 38.7129 119.883 38.7129C121.219 38.7129 121.887 38.1094 121.887 36.9023ZM18.8086 74.6484H16.2422V84H11.0742V58.4062H19.3184C21.9082 58.4062 23.9062 59.0801 25.3125 60.4277C26.7305 61.7637 27.4395 63.668 27.4395 66.1406C27.4395 69.5391 26.2031 71.918 23.7305 73.2773L28.2129 83.7539V84H22.6582L18.8086 74.6484ZM16.2422 70.3418H19.1777C20.209 70.3418 20.9824 70.002 21.498 69.3223C22.0137 68.6309 22.2715 67.7109 22.2715 66.5625C22.2715 63.9961 21.2695 62.7129 19.2656 62.7129H16.2422V70.3418ZM38.4258 84.3516C35.8711 84.3516 33.8789 83.5898 32.4492 82.0664C31.0195 80.543 30.3047 78.3633 30.3047 75.5273V74.0156C30.3047 71.0156 30.9609 68.7012 32.2734 67.0723C33.5859 65.4434 35.4668 64.6289 37.916 64.6289C40.3066 64.6289 42.1055 65.3965 43.3125 66.9316C44.5195 68.4551 45.1348 70.7168 45.1582 73.7168V76.1602H35.2617C35.332 77.5664 35.6426 78.5977 36.1934 79.2539C36.7441 79.8984 37.5938 80.2207 38.7422 80.2207C40.4062 80.2207 41.7949 79.6523 42.9082 78.5156L44.8594 81.5215C44.25 82.3652 43.3652 83.0508 42.2051 83.5781C41.0449 84.0938 39.7852 84.3516 38.4258 84.3516ZM35.2969 72.6797H40.2715V72.2227C40.248 71.0859 40.0605 70.2246 39.709 69.6387C39.3574 69.0527 38.748 68.7598 37.8809 68.7598C37.0137 68.7598 36.3809 69.0703 35.9824 69.6914C35.5957 70.3125 35.3672 71.3086 35.2969 72.6797ZM56.3906 78.9023C56.3906 78.4805 56.1855 78.0938 55.7754 77.7422C55.377 77.3789 54.4805 76.8926 53.0859 76.2832C51.0352 75.4512 49.623 74.5898 48.8496 73.6992C48.0879 72.8086 47.707 71.7012 47.707 70.377C47.707 68.7129 48.3047 67.3418 49.5 66.2637C50.707 65.1738 52.3008 64.6289 54.2812 64.6289C56.3672 64.6289 58.0371 65.168 59.291 66.2461C60.5449 67.3242 61.1719 68.7715 61.1719 70.5879H56.1973C56.1973 69.041 55.5527 68.2676 54.2637 68.2676C53.7363 68.2676 53.3027 68.4316 52.9629 68.7598C52.623 69.0879 52.4531 69.5449 52.4531 70.1309C52.4531 70.5527 52.6406 70.9277 53.0156 71.2559C53.3906 71.5723 54.2754 72.0293 55.6699 72.627C57.6973 73.377 59.127 74.2148 59.959 75.1406C60.8027 76.0547 61.2246 77.2441 61.2246 78.709C61.2246 80.4082 60.5859 81.7734 59.3086 82.8047C58.0312 83.8359 56.3555 84.3516 54.2812 84.3516C52.8867 84.3516 51.6562 84.082 50.5898 83.543C49.5234 82.9922 48.6855 82.2305 48.0762 81.2578C47.4785 80.2852 47.1797 79.2363 47.1797 78.1113H51.9082C51.9316 78.9785 52.1309 79.6289 52.5059 80.0625C52.8926 80.4961 53.5195 80.7129 54.3867 80.7129C55.7227 80.7129 56.3906 80.1094 56.3906 78.9023ZM70.1016 60.3047V64.9805H72.6504V68.7246H70.1016V78.1641C70.1016 78.9141 70.2012 79.4297 70.4004 79.7109C70.6113 79.9922 71.0098 80.1328 71.5957 80.1328C72.0762 80.1328 72.4688 80.0918 72.7734 80.0098L72.7383 83.877C71.8945 84.1934 70.9805 84.3516 69.9961 84.3516C66.7852 84.3516 65.1621 82.5117 65.127 78.832V68.7246H62.9297V64.9805H65.127V60.3047H70.1016ZM74.2852 73.875C74.2852 70.9922 74.9648 68.7305 76.3242 67.0898C77.6836 65.4492 79.5645 64.6289 81.9668 64.6289C84.3926 64.6289 86.2852 65.4492 87.6445 67.0898C89.0039 68.7305 89.6836 71.0039 89.6836 73.9102V75.123C89.6836 78.0176 89.0098 80.2793 87.6621 81.9082C86.3145 83.5371 84.4277 84.3516 82.002 84.3516C79.5645 84.3516 77.666 83.5371 76.3066 81.9082C74.959 80.2676 74.2852 77.9941 74.2852 75.0879V73.875ZM79.2773 75.123C79.2773 78.5215 80.1855 80.2207 82.002 80.2207C83.6777 80.2207 84.5801 78.8027 84.709 75.9668L84.7266 73.875C84.7266 72.1406 84.4863 70.8574 84.0059 70.0254C83.5254 69.1816 82.8457 68.7598 81.9668 68.7598C81.123 68.7598 80.4609 69.1816 79.9805 70.0254C79.5117 70.8574 79.2773 72.1406 79.2773 73.875V75.123Z" fill="#31BF3F"/>
<path d="M150.692 2V137.957H2V2H150.692Z" stroke="#31BF3F" stroke-width="4"/>
</svg>
